# Blender v2.77 (sub 0) OBJ File: ''
# www.blender.org
mtllib 00000001.mtl
o C01_Body_Ch
v 0.000000 -19.989695 -34.490902
v 0.000000 -23.574493 -32.408604
v -4.647780 -19.744293 -34.202904
v -4.647780 -23.359095 -32.115604
v 0.000000 -35.309093 -18.875906
v -4.687850 -34.887096 -18.650606
v 0.000000 -39.844200 -3.927176
v -18.922899 -17.372793 -30.422802
v -4.687850 -39.368401 -3.879596
v 0.000000 -38.314098 11.620093
v -18.926699 -20.734695 -28.504602
v -19.718000 -21.741394 -29.605204
v -31.348700 -13.556396 -22.460701
v -4.687850 -37.855900 11.481094
v 0.000000 -30.950603 25.396894
v -5.179920 -36.290794 -19.400606
v -19.843199 -32.503197 -17.375906
v -32.671001 -17.167496 -21.525402
v -31.359999 -16.304796 -20.797901
v -36.404697 -11.673298 -12.834601
v -5.177420 -24.439693 -33.348904
v -4.687850 -30.581203 25.093893
v -5.179920 -40.952297 -4.036107
v -36.404697 -13.840697 -10.863802
v -32.882599 -24.832798 -12.129704
v -37.959801 -15.562298 -12.037004
v 0.000000 -23.471806 32.492596
v -5.179920 -39.379704 11.943193
v -33.171799 -8.163649 -8.407170
v -19.843199 -36.678898 -3.615406
v -37.814598 -19.108200 -5.126683
v -36.404697 -16.992199 -4.226423
v 4.687850 -30.581203 25.093893
v -4.647780 -23.364105 32.111897
v -5.179920 -31.812006 26.103094
v -19.843199 -35.270298 10.696094
v -36.404697 -17.316500 2.598757
v -33.174297 -11.332700 -2.817812
v -32.882599 -27.583700 -1.703444
v 4.647780 -23.364105 32.111897
v 5.179920 -31.812006 26.103094
v 0.000000 -19.875805 34.557297
v -5.177420 -24.438406 33.351494
v -31.349998 0.000023 -0.000593
v -37.859699 -19.577799 2.615037
v -36.404697 -15.003901 9.027027
v -19.843199 -28.491404 23.379795
v -32.882599 -26.135004 8.981946
v 5.177420 -24.438406 33.351494
v 5.179920 -39.379704 11.943193
v -4.647780 -19.748106 34.200394
v -33.174297 -11.549299 1.733558
v -37.906002 -17.016003 9.921017
v -19.709299 -21.738905 29.608997
v 19.843199 -28.491404 23.379795
v 4.647780 -19.748106 34.200394
v 4.687850 -37.855900 11.481094
v -18.917900 -21.002703 28.305595
v -18.922899 -17.660805 30.257595
v -33.174297 -10.006701 6.020739
v -32.882599 -20.708403 18.300097
v 19.709299 -21.738905 29.608997
v 19.843199 -35.270298 10.696094
v 18.917900 -21.002703 28.305595
v 0.000000 -30.950603 25.396894
v -31.348700 -12.673703 22.970398
v -31.336199 -15.488403 21.421497
v -33.174297 -6.940351 9.391389
v -33.171799 -3.199082 11.274499
v -36.404697 -10.407402 14.081697
v -32.655899 -16.318604 22.195297
v 5.179920 -40.952297 -4.036107
v 32.882599 -26.135004 8.981946
v 18.922899 -17.660805 30.257595
v 32.882599 -20.708403 18.300097
v 0.000000 -38.314098 11.620093
v -36.404697 -8.068493 15.635598
v -37.949799 -11.842302 15.654398
v 19.843199 -36.678898 -3.615406
v 32.655899 -16.318604 22.195297
v 31.336199 -15.488403 21.421497
v 37.906002 -17.016003 9.921017
v 0.000000 -39.844200 -3.927176
v 4.687850 -39.368401 -3.879596
v -36.404697 -5.278823 16.527100
v -37.977299 -9.465833 17.224497
v 19.843199 -32.503197 -17.375906
v 32.882599 -27.583700 -1.703444
v 37.977299 -9.465833 17.224497
v 36.404697 -8.068493 15.635598
v 31.348700 -12.673703 22.970398
v 37.949799 -11.842302 15.654398
v 0.000000 -35.309093 -18.875906
v 4.687850 -34.887096 -18.650606
v 5.179920 -36.290794 -19.400606
v 32.882599 -24.832798 -12.129704
v 37.859699 -19.577799 2.615037
v 36.404697 -5.278823 16.527100
v 36.404697 -10.407402 14.081697
v 4.647780 -23.359095 -32.115604
v 0.000000 -23.574493 -32.408604
v 5.177420 -24.439693 -33.348904
v 19.718000 -21.741394 -29.605204
v 37.814598 -19.108200 -5.126683
v 37.959801 -15.562298 -12.037004
v 33.171799 -3.199082 11.274499
v 36.404697 -15.003901 9.027027
v 4.647780 -19.744293 -34.202904
v 0.000000 -19.989695 -34.490902
v 32.671001 -17.167496 -21.525402
v 36.404697 -16.992199 -4.226423
v 33.174297 -6.940351 9.391389
v 36.404697 -17.316500 2.598757
v 18.922899 -17.372793 -30.422802
v 18.926699 -20.734695 -28.504602
v 36.404697 -13.840697 -10.863802
v 33.174297 -10.006701 6.020739
v 31.349998 0.000023 -0.000593
v 33.174297 -11.332700 -2.817812
v 31.348700 -13.556396 -22.460701
v 31.359999 -16.304796 -20.797901
v 33.174297 -11.549299 1.733558
v 33.171799 -8.163649 -8.407170
v 36.404697 -11.673298 -12.834601
v 0.000000 -19.875805 34.557297
v 0.000000 -16.279705 36.620697
v -4.647780 -19.748106 34.200394
v -4.647780 -16.133305 36.287697
v 0.000000 1.307203 40.016399
v -4.687850 1.292184 39.538097
v 0.000000 16.521395 36.469204
v -18.922899 -17.660805 30.257595
v 0.000000 29.220196 27.371504
v -4.687850 16.323593 36.033504
v -18.926699 -14.319006 32.209595
v -19.718000 -14.768505 33.631996
v -31.348700 -12.673703 22.970398
v -4.687850 28.870895 27.044703
v 0.000000 37.470295 14.105505
v -5.179920 1.343513 41.128300
v -19.843199 1.203284 36.836098
v -32.671001 -10.056804 25.629797
v -31.359999 -9.858994 24.519197
v -36.404697 -5.278823 16.527100
v -5.177420 -16.660406 37.840294
v -4.687850 37.021999 13.936505
v -5.179920 16.980995 37.483402
v -36.404697 -2.487893 17.418600
v -32.882599 1.911975 27.569300
v -37.959801 -2.643153 19.495800
v 0.000000 39.875599 4.081246
v -5.179920 30.032795 28.132805
v -33.171799 -3.199082 11.274499
v -19.843199 15.209194 33.571903
v -37.814598 5.114837 19.112700
v -36.404697 4.836867 16.828800
v 4.687850 37.021999 13.936505
v -4.647780 39.492397 4.177656
v -5.179920 38.511997 14.497406
v -19.843199 26.898796 25.196604
v -36.404697 10.908298 13.697302
v -33.174297 3.225428 11.224501
v -32.882599 12.316895 24.739601
v 5.179920 38.511997 14.497406
v 4.647780 39.492397 4.177656
v 0.000000 39.865498 -0.065696
v -5.177420 41.102600 4.488176
v -31.349998 0.000023 -0.000593
v -37.859699 12.053998 15.646901
v -36.404697 15.319399 8.479862
v -19.843199 34.492794 12.984905
v -32.882599 20.846195 18.142303
v 5.177420 41.102600 4.488176
v 5.179920 30.032795 28.132805
v -4.647780 39.492397 0.003169
v -33.174297 7.275959 9.134710
v -37.906002 17.099897 9.775783
v -19.709299 36.512398 4.022396
v 19.843199 34.492794 12.984905
v 4.647780 39.492397 0.003169
v 4.687850 28.870895 27.044703
v -18.917900 35.014900 4.036176
v -18.922899 35.033699 0.165942
v -33.174297 10.217099 5.655131
v -32.882599 26.202698 8.784123
v 19.709299 36.512398 4.022396
v 19.843199 26.898796 25.196604
v 18.917900 35.014900 4.036176
v 0.000000 37.470295 14.105505
v -31.336199 26.296598 2.702684
v -31.348700 26.230200 -0.508940
v -33.174297 11.604500 1.315362
v -33.171799 11.362800 -2.866638
v -36.404697 17.399200 1.971463
v -32.655899 27.380899 3.035744
v 5.179920 16.980995 37.483402
v 32.882599 20.846195 18.142303
v 18.922899 35.033699 0.165942
v 32.882599 26.202698 8.784123
v 0.000000 29.220196 27.371504
v -36.404697 17.575699 -0.830731
v -37.949799 19.477600 2.428483
v 19.843199 15.209194 33.571903
v 32.655899 27.380899 3.035744
v 31.336199 26.296598 2.702684
v 37.906002 17.099897 9.775783
v 4.687850 16.323593 36.033504
v 0.000000 16.521395 36.469204
v -36.404697 16.952200 -3.691767
v -37.977299 19.650400 -0.413782
v 19.843199 1.203284 36.836098
v 32.882599 12.316895 24.739601
v 37.977299 19.650400 -0.413782
v 36.404697 17.575699 -0.830731
v 31.348700 26.230200 -0.508940
v 37.949799 19.477600 2.428483
v 4.687850 1.292184 39.538097
v 0.000000 1.307203 40.016399
v 5.179920 1.343513 41.128300
v 32.882599 1.911975 27.569300
v 37.859699 12.053998 15.646901
v 36.404697 16.952200 -3.691767
v 36.404697 17.399200 1.971463
v 4.647780 -16.133305 36.287697
v 0.000000 -16.279705 36.620697
v 5.177420 -16.660406 37.840294
v 19.718000 -14.768505 33.631996
v 37.814598 5.114837 19.112700
v 37.959801 -2.643153 19.495800
v 33.171799 11.362800 -2.866638
v 36.404697 15.319399 8.479862
v 4.647780 -19.748106 34.200394
v 0.000000 -19.875805 34.557297
v 32.671001 -10.056804 25.629797
v 36.404697 4.836867 16.828800
v 33.174297 11.604500 1.315362
v 36.404697 10.908298 13.697302
v 18.922899 -17.660805 30.257595
v 18.926699 -14.319006 32.209595
v 36.404697 -2.487893 17.418600
v 33.174297 10.217099 5.655131
v 31.349998 0.000023 -0.000593
v 33.174297 3.225428 11.224501
v 31.348700 -12.673703 22.970398
v 31.359999 -9.858994 24.519197
v 33.174297 7.275959 9.134710
v 33.171799 -3.199082 11.274499
v 36.404697 -5.278823 16.527100
v 0.000000 39.865498 -0.065696
v 0.000000 39.854298 -4.211393
v -4.647780 39.492397 0.003169
v -4.647780 39.492397 -4.172574
v 0.000000 34.000702 -21.139793
v -4.687850 33.595005 -20.888094
v 0.000000 23.322805 -32.542595
v -18.922899 35.033699 0.165942
v -4.687850 23.044905 -32.153194
v 0.000000 9.094007 -38.990898
v -19.718000 36.509899 -4.026074
v -18.926699 35.053699 -3.704294
v -31.348700 26.230200 -0.508940
v -4.687850 8.985077 -38.525101
v 0.000000 -6.519644 -39.503002
v -5.179920 34.947304 -21.728193
v -19.843199 31.299904 -19.460693
v -32.671001 27.225599 -4.104966
v -31.359999 26.163799 -3.721826
v -36.404697 16.952200 -3.691767
v -5.177420 41.101398 -4.490603
v -4.687850 -6.442014 -39.031002
v -5.179920 23.971405 -33.447895
v -36.404697 16.328602 -6.554067
v -32.882599 22.919701 -15.440196
v -37.959801 18.205502 -7.459327
v 0.000000 -16.403694 -36.573101
v -5.179920 9.346936 -40.075199
v -33.171799 11.362800 -2.866638
v -19.843199 21.469706 -29.956997
v -37.814598 13.994701 -13.985298
v -36.404697 12.155401 -12.602999
v 4.687850 -6.442014 -39.031002
v -4.647780 -16.128195 -36.290104
v -5.179920 -6.699943 -40.601097
v -19.843199 8.371546 -35.893200
v -36.404697 6.408263 -16.295397
v -33.174297 8.107350 -8.405919
v -32.882599 15.266804 -23.036697
v 4.647780 -16.128195 -36.290104
v 5.179920 -6.699943 -40.601097
v 0.000000 -19.989695 -34.490902
v -5.177420 -16.664093 -37.840202
v -31.349998 0.000023 -0.000593
v -37.859699 7.523873 -18.262398
v -36.404697 -0.315502 -17.507399
v -19.843199 -6.001274 -36.364002
v -32.882599 5.288884 -27.124800
v 5.177420 -16.664093 -37.840202
v 5.179920 9.346936 -40.075199
v -4.647780 -19.744293 -34.202904
v -33.174297 4.273432 -10.868799
v -37.906002 -0.083863 -19.697300
v -19.709299 -14.772194 -33.631905
v 19.843199 -6.001274 -36.364002
v 4.647780 -19.744293 -34.202904
v 4.687850 8.985077 -38.525101
v -18.922899 -17.372793 -30.422802
v -18.917900 -14.012194 -32.342304
v -33.174297 -0.210327 -11.676399
v -32.882599 -5.494175 -27.084700
v 19.709299 -14.772194 -33.631905
v 19.843199 8.371546 -35.893200
v 18.917900 -14.012194 -32.342304
v 0.000000 -6.519644 -39.503002
v -31.336199 -10.806796 -24.124701
v -31.348700 -13.556396 -22.460701
v -33.174297 -4.662788 -10.707301
v -33.171799 -8.163649 -8.407170
v -36.404697 -6.991687 -16.053701
v -32.655899 -11.062296 -25.230402
v 5.179920 23.971405 -33.447895
v 32.882599 5.288884 -27.124800
v 18.922899 -17.372793 -30.422802
v 32.882599 -5.494175 -27.084700
v 0.000000 9.094007 -38.990898
v -36.404697 -9.507147 -14.805402
v -37.949799 -7.635257 -18.083401
v 19.843199 21.469706 -29.956997
v 32.655899 -11.062296 -25.230402
v 31.336199 -10.806796 -24.124701
v 37.906002 -0.083863 -19.697300
v 4.687850 23.044905 -32.153194
v 0.000000 23.322805 -32.542595
v -36.404697 -11.673298 -12.834601
v -37.977299 -10.183297 -16.810001
v 19.843199 31.299904 -19.460693
v 32.882599 15.266804 -23.036697
v 37.977299 -10.183297 -16.810001
v 36.404697 -9.507147 -14.805402
v 31.348700 -13.556396 -22.460701
v 37.949799 -7.635257 -18.083401
v 4.687850 33.595005 -20.888094
v 0.000000 34.000702 -21.139793
v 5.179920 34.947304 -21.728193
v 32.882599 22.919701 -15.440196
v 37.859699 7.523873 -18.262398
v 36.404697 -11.673298 -12.834601
v 36.404697 -6.991687 -16.053701
v 4.647780 39.492397 -4.172574
v 0.000000 39.854298 -4.211393
v 5.177420 41.101398 -4.490603
v 19.718000 36.509899 -4.026074
v 37.959801 18.205502 -7.459327
v 37.814598 13.994701 -13.985298
v 33.171799 -8.163649 -8.407170
v 36.404697 -0.315502 -17.507399
v 0.000000 39.865498 -0.065696
v 4.647780 39.492397 0.003169
v 32.671001 27.225599 -4.104966
v 36.404697 12.155401 -12.602999
v 33.174297 -4.662788 -10.707301
v 36.404697 6.408263 -16.295397
v 18.922899 35.033699 0.165942
v 18.926699 35.053699 -3.704294
v 36.404697 16.328602 -6.554067
v 33.174297 -0.210327 -11.676399
v 31.349998 0.000023 -0.000593
v 33.174297 8.107350 -8.405919
v 31.348700 26.230200 -0.508940
v 31.359999 26.163799 -3.721826
v 33.174297 4.273432 -10.868799
v 33.171799 11.362800 -2.866638
v 36.404697 16.952200 -3.691767
vt 0.0066 -0.0560
vt 0.0124 -0.0881
vt 0.0441 -0.0468
vt 0.0542 -0.0833
vt 0.0282 -0.2577
vt 0.0721 -0.2469
vt 0.0856 -0.4157
vt 0.1802 -0.0059
vt 0.1287 -0.3950
vt 0.1744 -0.5531
vt 0.1843 -0.0438
vt 0.1873 -0.0617
vt 0.3525 -0.0155
vt 0.2113 -0.5241
vt 0.2875 -0.6667
vt 0.0907 -0.2428
vt 0.2206 -0.2049
vt 0.3453 -0.0705
vt 0.3490 -0.0508
vt 0.4652 -0.0732
vt 0.0695 -0.0918
vt 0.3154 -0.6348
vt 0.1433 -0.3878
vt 0.4631 -0.1061
vt 0.3609 -0.1805
vt 0.4375 -0.1199
vt 0.3667 -0.7219
vt 0.2237 -0.5143
vt 0.5475 -0.0862
vt 0.2648 -0.3226
vt 0.4589 -0.1936
vt 0.4849 -0.1872
vt 0.3154 -0.6348
vt 0.3943 -0.6859
vt 0.3267 -0.6221
vt 0.3304 -0.4287
vt 0.5164 -0.2500
vt 0.5534 -0.1641
vt 0.3957 -0.2697
vt 0.3943 -0.6859
vt 0.3267 -0.6221
vt 0.3964 -0.7466
vt 0.3934 -0.6686
vt 0.6962 -0.1337
vt 0.4926 -0.2622
vt 0.5618 -0.3026
vt 0.4159 -0.5228
vt 0.4484 -0.3500
vt 0.3934 -0.6686
vt 0.2237 -0.5143
vt 0.4247 -0.7123
vt 0.5754 -0.2107
vt 0.5417 -0.3204
vt 0.4797 -0.5782
vt 0.4159 -0.5228
vt 0.4247 -0.7123
vt 0.2113 -0.5241
vt 0.4933 -0.5902
vt 0.5216 -0.6105
vt 0.6099 -0.2486
vt 0.5195 -0.4183
vt 0.4797 -0.5782
vt 0.3304 -0.4287
vt 0.4933 -0.5902
vt 0.2875 -0.6667
vt 0.6115 -0.4746
vt 0.5829 -0.4616
vt 0.6563 -0.2762
vt 0.7060 -0.2872
vt 0.6202 -0.3457
vt 0.5675 -0.4494
vt 0.1433 -0.3878
vt 0.4484 -0.3500
vt 0.5216 -0.6105
vt 0.5195 -0.4183
vt 0.1744 -0.5531
vt 0.6507 -0.3701
vt 0.6010 -0.3665
vt 0.2648 -0.3226
vt 0.5675 -0.4494
vt 0.5829 -0.4616
vt 0.5417 -0.3204
vt 0.0856 -0.4157
vt 0.1287 -0.3950
vt 0.6873 -0.3738
vt 0.6208 -0.3793
vt 0.2206 -0.2049
vt 0.3957 -0.2697
vt 0.6208 -0.3793
vt 0.6507 -0.3701
vt 0.6115 -0.4746
vt 0.6010 -0.3665
vt 0.0282 -0.2577
vt 0.0721 -0.2469
vt 0.0907 -0.2428
vt 0.3609 -0.1805
vt 0.4926 -0.2622
vt 0.6873 -0.3738
vt 0.6202 -0.3457
vt 0.0542 -0.0833
vt 0.0124 -0.0881
vt 0.0695 -0.0918
vt 0.1873 -0.0617
vt 0.4589 -0.1936
vt 0.4375 -0.1199
vt 0.7060 -0.2872
vt 0.5618 -0.3026
vt 0.0441 -0.0468
vt 0.0066 -0.0560
vt 0.3453 -0.0705
vt 0.4849 -0.1872
vt 0.6563 -0.2762
vt 0.5164 -0.2500
vt 0.1802 -0.0059
vt 0.1843 -0.0438
vt 0.4631 -0.1061
vt 0.6099 -0.2486
vt 0.6962 -0.1337
vt 0.5534 -0.1641
vt 0.3525 -0.0155
vt 0.3490 -0.0508
vt 0.5754 -0.2107
vt 0.5475 -0.0862
vt 0.4652 -0.0732
vt 0.0066 -0.0560
vt 0.0124 -0.0881
vt 0.0441 -0.0468
vt 0.0542 -0.0833
vt 0.0282 -0.2577
vt 0.0721 -0.2469
vt 0.0856 -0.4157
vt 0.1802 -0.0059
vt 0.1744 -0.5531
vt 0.1287 -0.3950
vt 0.1843 -0.0438
vt 0.1873 -0.0617
vt 0.3525 -0.0155
vt 0.2113 -0.5241
vt 0.2875 -0.6667
vt 0.0907 -0.2428
vt 0.2206 -0.2049
vt 0.3453 -0.0705
vt 0.3490 -0.0508
vt 0.4652 -0.0732
vt 0.0695 -0.0918
vt 0.3154 -0.6348
vt 0.1433 -0.3878
vt 0.4631 -0.1061
vt 0.3609 -0.1805
vt 0.4375 -0.1199
vt 0.3667 -0.7219
vt 0.2237 -0.5143
vt 0.5475 -0.0862
vt 0.2648 -0.3226
vt 0.4589 -0.1936
vt 0.4849 -0.1872
vt 0.3154 -0.6348
vt 0.3943 -0.6859
vt 0.3267 -0.6221
vt 0.3304 -0.4287
vt 0.5164 -0.2500
vt 0.5534 -0.1641
vt 0.3957 -0.2697
vt 0.3267 -0.6221
vt 0.3943 -0.6859
vt 0.3964 -0.7466
vt 0.3934 -0.6686
vt 0.6962 -0.1337
vt 0.4926 -0.2622
vt 0.5618 -0.3026
vt 0.4159 -0.5228
vt 0.4484 -0.3500
vt 0.3934 -0.6686
vt 0.2237 -0.5143
vt 0.4247 -0.7123
vt 0.5754 -0.2107
vt 0.5417 -0.3204
vt 0.4797 -0.5782
vt 0.4159 -0.5228
vt 0.4247 -0.7123
vt 0.2113 -0.5241
vt 0.4933 -0.5902
vt 0.5216 -0.6105
vt 0.6099 -0.2486
vt 0.5195 -0.4183
vt 0.4797 -0.5782
vt 0.3304 -0.4287
vt 0.4933 -0.5902
vt 0.2875 -0.6667
vt 0.5829 -0.4616
vt 0.6115 -0.4746
vt 0.6563 -0.2762
vt 0.7060 -0.2872
vt 0.6202 -0.3457
vt 0.5675 -0.4494
vt 0.1433 -0.3878
vt 0.4484 -0.3500
vt 0.5216 -0.6105
vt 0.5195 -0.4183
vt 0.1744 -0.5531
vt 0.6507 -0.3701
vt 0.6010 -0.3665
vt 0.2648 -0.3226
vt 0.5675 -0.4494
vt 0.5829 -0.4616
vt 0.5417 -0.3204
vt 0.1287 -0.3950
vt 0.0856 -0.4157
vt 0.6873 -0.3738
vt 0.6208 -0.3793
vt 0.2206 -0.2049
vt 0.3957 -0.2697
vt 0.6208 -0.3793
vt 0.6507 -0.3701
vt 0.6115 -0.4746
vt 0.6010 -0.3665
vt 0.0721 -0.2469
vt 0.0282 -0.2577
vt 0.0907 -0.2428
vt 0.3609 -0.1805
vt 0.4926 -0.2622
vt 0.6873 -0.3738
vt 0.6202 -0.3457
vt 0.0542 -0.0833
vt 0.0124 -0.0881
vt 0.0695 -0.0918
vt 0.1873 -0.0617
vt 0.4589 -0.1936
vt 0.4375 -0.1199
vt 0.7060 -0.2872
vt 0.5618 -0.3026
vt 0.0441 -0.0468
vt 0.0066 -0.0560
vt 0.3453 -0.0705
vt 0.4849 -0.1872
vt 0.6563 -0.2762
vt 0.5164 -0.2500
vt 0.1802 -0.0059
vt 0.1843 -0.0438
vt 0.4631 -0.1061
vt 0.6099 -0.2486
vt 0.6962 -0.1337
vt 0.5534 -0.1641
vt 0.3525 -0.0155
vt 0.3490 -0.0508
vt 0.5754 -0.2107
vt 0.5475 -0.0862
vt 0.4652 -0.0732
vt 0.0066 -0.0560
vt 0.0124 -0.0881
vt 0.0441 -0.0468
vt 0.0542 -0.0833
vt 0.0282 -0.2577
vt 0.0721 -0.2469
vt 0.0856 -0.4157
vt 0.1802 -0.0059
vt 0.1287 -0.3950
vt 0.1744 -0.5531
vt 0.1873 -0.0617
vt 0.1843 -0.0438
vt 0.3525 -0.0155
vt 0.2113 -0.5241
vt 0.2875 -0.6667
vt 0.0907 -0.2428
vt 0.2206 -0.2049
vt 0.3453 -0.0705
vt 0.3490 -0.0508
vt 0.4652 -0.0732
vt 0.0695 -0.0918
vt 0.3154 -0.6348
vt 0.1433 -0.3878
vt 0.4631 -0.1061
vt 0.3609 -0.1805
vt 0.4375 -0.1199
vt 0.3667 -0.7219
vt 0.2237 -0.5143
vt 0.5475 -0.0862
vt 0.2648 -0.3226
vt 0.4589 -0.1936
vt 0.4849 -0.1872
vt 0.3154 -0.6348
vt 0.3943 -0.6859
vt 0.3267 -0.6221
vt 0.3304 -0.4287
vt 0.5164 -0.2500
vt 0.5534 -0.1641
vt 0.3957 -0.2697
vt 0.3943 -0.6859
vt 0.3267 -0.6221
vt 0.3964 -0.7466
vt 0.3934 -0.6686
vt 0.6962 -0.1337
vt 0.4926 -0.2622
vt 0.5618 -0.3026
vt 0.4159 -0.5228
vt 0.4484 -0.3500
vt 0.3934 -0.6686
vt 0.2237 -0.5143
vt 0.4247 -0.7123
vt 0.5754 -0.2107
vt 0.5417 -0.3204
vt 0.4797 -0.5782
vt 0.4159 -0.5228
vt 0.4247 -0.7123
vt 0.2113 -0.5241
vt 0.5216 -0.6105
vt 0.4933 -0.5902
vt 0.6099 -0.2486
vt 0.5195 -0.4183
vt 0.4797 -0.5782
vt 0.3304 -0.4287
vt 0.4933 -0.5902
vt 0.2875 -0.6667
vt 0.5829 -0.4616
vt 0.6115 -0.4746
vt 0.6563 -0.2762
vt 0.7060 -0.2872
vt 0.6202 -0.3457
vt 0.5675 -0.4494
vt 0.1433 -0.3878
vt 0.4484 -0.3500
vt 0.5216 -0.6105
vt 0.5195 -0.4183
vt 0.1744 -0.5531
vt 0.6507 -0.3701
vt 0.6010 -0.3665
vt 0.2648 -0.3226
vt 0.5675 -0.4494
vt 0.5829 -0.4616
vt 0.5417 -0.3204
vt 0.1287 -0.3950
vt 0.0856 -0.4157
vt 0.6873 -0.3738
vt 0.6208 -0.3793
vt 0.2206 -0.2049
vt 0.3957 -0.2697
vt 0.6208 -0.3793
vt 0.6507 -0.3701
vt 0.6115 -0.4746
vt 0.6010 -0.3665
vt 0.0721 -0.2469
vt 0.0282 -0.2577
vt 0.0907 -0.2428
vt 0.3609 -0.1805
vt 0.4926 -0.2622
vt 0.6873 -0.3738
vt 0.6202 -0.3457
vt 0.0542 -0.0833
vt 0.0124 -0.0881
vt 0.0695 -0.0918
vt 0.1873 -0.0617
vt 0.4375 -0.1199
vt 0.4589 -0.1936
vt 0.7060 -0.2872
vt 0.5618 -0.3026
vt 0.0066 -0.0560
vt 0.0441 -0.0468
vt 0.3453 -0.0705
vt 0.4849 -0.1872
vt 0.6563 -0.2762
vt 0.5164 -0.2500
vt 0.1802 -0.0059
vt 0.1843 -0.0438
vt 0.4631 -0.1061
vt 0.6099 -0.2486
vt 0.6962 -0.1337
vt 0.5534 -0.1641
vt 0.3525 -0.0155
vt 0.3490 -0.0508
vt 0.5754 -0.2107
vt 0.5475 -0.0862
vt 0.4652 -0.0732
vn -0.0798 -0.5007 -0.8619
vn -0.0785 -0.6348 -0.7687
vn -0.1905 -0.4914 -0.8498
vn 0.1593 -0.3556 -0.9210
vn -0.0996 -0.8724 -0.4786
vn 0.5938 -0.7056 -0.3866
vn -0.1015 -0.9900 -0.0976
vn -0.4417 -0.4446 -0.7792
vn 0.5914 -0.8025 -0.0790
vn -0.1016 -0.9520 0.2887
vn -0.3212 0.2406 -0.9159
vn -0.3725 0.0306 -0.9275
vn -0.7280 -0.3511 -0.5887
vn 0.5914 -0.7717 0.2340
vn -0.0336 -0.7609 0.6480
vn 0.4370 -0.7881 -0.4333
vn -0.4253 -0.7896 -0.4422
vn -0.6702 0.1956 -0.7159
vn -0.6492 0.3212 -0.6894
vn -0.9969 -0.0461 -0.0642
vn 0.3623 -0.0971 -0.9269
vn 0.5844 -0.6482 0.4881
vn 0.4403 -0.8935 -0.0880
vn -0.9022 0.4297 0.0365
vn -0.7104 -0.6259 -0.3216
vn -0.9355 0.2435 -0.2558
vn 0.0000 -0.5989 0.8008
vn 0.4403 -0.8592 0.2606
vn -0.9348 0.3026 0.1860
vn -0.4249 -0.9008 -0.0891
vn -0.9975 -0.0697 -0.0094
vn -0.8606 0.4929 0.1282
vn -0.5844 -0.6482 0.4881
vn 0.1449 -0.3256 0.9343
vn 0.4469 -0.7157 0.5367
vn -0.4249 -0.8663 0.2624
vn -0.8547 0.5126 -0.0817
vn -0.9377 0.3335 0.0977
vn -0.7128 -0.7001 -0.0427
vn -0.1449 -0.3256 0.9343
vn -0.4469 -0.7157 0.5367
vn 0.0000 -0.4989 0.8666
vn 0.3696 -0.0529 0.9276
vn -0.9911 0.1287 -0.0316
vn -0.9984 -0.0559 0.0060
vn -0.8475 0.4523 -0.2777
vn -0.4304 -0.7142 0.5519
vn -0.7122 -0.6636 0.2287
vn -0.3696 -0.0529 0.9276
vn -0.4403 -0.8592 0.2606
vn -0.1899 -0.4914 0.8500
vn -0.9391 0.3399 -0.0510
vn -0.9990 -0.0394 0.0212
vn -0.3289 0.1510 0.9322
vn 0.4304 -0.7142 0.5519
vn 0.1899 -0.4914 0.8500
vn -0.5914 -0.7717 0.2340
vn -0.2655 0.3457 0.9000
vn -0.4433 -0.4515 0.7743
vn -0.9391 0.2944 -0.1772
vn -0.7157 -0.5307 0.4540
vn 0.3289 0.1510 0.9322
vn 0.4249 -0.8663 0.2624
vn 0.2655 0.3457 0.9000
vn 0.0995 -0.8776 0.4690
vn -0.7526 -0.3129 0.5793
vn -0.3948 0.2948 0.8701
vn -0.9412 0.2085 -0.2658
vn -0.9424 0.1411 -0.3032
vn -0.8413 0.3505 -0.4115
vn -0.5258 0.0894 0.8459
vn -0.4403 -0.8935 -0.0880
vn 0.7122 -0.6636 0.2287
vn 0.4433 -0.4515 0.7743
vn 0.7157 -0.5307 0.4540
vn 0.1016 -0.9520 0.2887
vn -0.9622 0.2710 -0.0247
vn -0.9998 -0.0070 0.0142
vn 0.4249 -0.9008 -0.0891
vn 0.5258 0.0894 0.8459
vn 0.3948 0.2948 0.8701
vn 0.9990 -0.0394 0.0212
vn 0.1015 -0.9900 -0.0976
vn -0.5914 -0.8025 -0.0790
vn -0.9945 0.0318 -0.0996
vn -0.7578 0.5084 0.4089
vn 0.4253 -0.7896 -0.4422
vn 0.7128 -0.7001 -0.0427
vn 0.7578 0.5084 0.4089
vn 0.9622 0.2710 -0.0247
vn 0.7526 -0.3129 0.5793
vn 0.9998 -0.0070 0.0142
vn 0.0996 -0.8724 -0.4786
vn -0.5938 -0.7056 -0.3866
vn -0.4370 -0.7881 -0.4333
vn 0.7104 -0.6259 -0.3216
vn 0.9984 -0.0559 0.0060
vn 0.9945 0.0318 -0.0996
vn 0.8413 0.3505 -0.4115
vn -0.1593 -0.3556 -0.9210
vn 0.0785 -0.6348 -0.7687
vn -0.3623 -0.0971 -0.9269
vn 0.3725 0.0306 -0.9275
vn 0.9975 -0.0697 -0.0094
vn 0.9355 0.2435 -0.2558
vn 0.9424 0.1411 -0.3032
vn 0.8475 0.4523 -0.2777
vn 0.1905 -0.4914 -0.8498
vn 0.0798 -0.5007 -0.8619
vn 0.6702 0.1956 -0.7159
vn 0.8606 0.4929 0.1282
vn 0.9412 0.2085 -0.2658
vn 0.8547 0.5126 -0.0817
vn 0.4417 -0.4446 -0.7792
vn 0.3212 0.2406 -0.9159
vn 0.9022 0.4297 0.0365
vn 0.9391 0.2944 -0.1772
vn 0.9911 0.1287 -0.0316
vn 0.9377 0.3335 0.0977
vn 0.7280 -0.3511 -0.5887
vn 0.6492 0.3212 -0.6894
vn 0.9391 0.3399 -0.0510
vn 0.9348 0.3026 0.1860
vn 0.9969 -0.0461 -0.0642
vn -0.0800 -0.4961 0.8646
vn -0.0786 -0.3483 0.9340
vn -0.1905 -0.4903 0.8504
vn 0.1592 -0.6198 0.7684
vn -0.0996 0.0217 0.9948
vn 0.5937 0.0180 0.8044
vn -0.1015 0.4105 0.9062
vn -0.4417 -0.4525 0.7747
vn -0.1015 0.7260 0.6801
vn 0.5914 0.3327 0.7345
vn -0.3213 -0.9134 0.2497
vn -0.3726 -0.8185 0.4373
vn -0.7280 -0.3342 0.5985
vn 0.5914 0.5885 0.5513
vn -0.0337 0.9416 0.3349
vn 0.4370 0.0188 0.8992
vn -0.4253 0.0118 0.9049
vn -0.6702 -0.7177 0.1887
vn -0.6493 -0.7576 0.0667
vn -0.9969 -0.0326 0.0721
vn 0.3623 -0.7541 0.5477
vn 0.5843 0.7468 0.3173
vn 0.4403 0.3705 0.8178
vn -0.9022 -0.1833 -0.3905
vn -0.7104 0.0344 0.7029
vn -0.9355 -0.3433 -0.0830
vn 0.0000 0.9930 0.1182
vn 0.4403 0.6553 0.6138
vn -0.9348 0.0098 -0.3551
vn -0.4249 0.3732 0.8247
vn -0.9975 0.0267 0.0652
vn -0.8606 -0.1354 -0.4909
vn -0.5843 0.7468 0.3173
vn 0.1449 0.9720 -0.1852
vn 0.4469 0.8226 0.3515
vn -0.4249 0.6605 0.6190
vn -0.8547 -0.3271 -0.4030
vn -0.9377 -0.0821 -0.3377
vn -0.7127 0.3130 0.6277
vn -0.4469 0.8226 0.3515
vn -0.1449 0.9720 -0.1852
vn 0.0000 1.0000 -0.0013
vn 0.3696 0.8299 -0.4180
vn -0.9911 -0.0917 -0.0956
vn -0.9984 0.0331 0.0454
vn -0.8476 -0.4666 -0.2528
vn -0.4304 0.8351 0.3426
vn -0.7122 0.5299 0.4603
vn -0.3696 0.8299 -0.4180
vn -0.4403 0.6553 0.6138
vn -0.1899 0.9818 0.0004
vn -0.9391 -0.2141 -0.2688
vn -0.9990 0.0381 0.0236
vn -0.3290 0.7319 -0.5967
vn 0.4304 0.8351 0.3426
vn 0.1899 0.9818 0.0004
vn -0.5914 0.5885 0.5513
vn -0.2656 0.6066 -0.7494
vn -0.4433 0.8963 0.0036
vn -0.9391 -0.3006 -0.1664
vn -0.7157 0.6585 0.2326
vn 0.3290 0.7319 -0.5967
vn 0.4249 0.6605 0.6190
vn 0.2656 0.6066 -0.7494
vn 0.0997 0.8450 0.5254
vn -0.3950 0.6063 -0.6902
vn -0.7526 0.6582 -0.0188
vn -0.9412 -0.3345 -0.0476
vn -0.9424 -0.3331 0.0295
vn -0.8412 -0.5317 -0.0978
vn -0.5259 0.6879 -0.5001
vn -0.4403 0.3705 0.8178
vn 0.7122 0.5299 0.4603
vn 0.4433 0.8963 0.0036
vn 0.7157 0.6585 0.2326
vn 0.1015 0.7260 0.6801
vn -0.9622 -0.1567 -0.2224
vn -0.9998 0.0156 -0.0010
vn 0.4249 0.3732 0.8247
vn 0.5259 0.6879 -0.5001
vn 0.3950 0.6063 -0.6902
vn 0.9990 0.0381 0.0236
vn -0.5914 0.3327 0.7345
vn 0.1015 0.4105 0.9062
vn -0.9945 -0.1022 0.0223
vn -0.7579 0.1002 -0.6446
vn 0.4253 0.0118 0.9049
vn 0.7127 0.3130 0.6277
vn 0.7579 0.1002 -0.6446
vn 0.9622 -0.1567 -0.2224
vn 0.7526 0.6582 -0.0188
vn 0.9998 0.0156 -0.0010
vn -0.5937 0.0180 0.8044
vn 0.0996 0.0217 0.9948
vn -0.4370 0.0188 0.8992
vn 0.7104 0.0344 0.7029
vn 0.9984 0.0331 0.0454
vn 0.9945 -0.1022 0.0223
vn 0.8412 -0.5317 -0.0978
vn -0.1592 -0.6198 0.7684
vn 0.0786 -0.3483 0.9340
vn -0.3623 -0.7541 0.5478
vn 0.3726 -0.8185 0.4373
vn 0.9975 0.0267 0.0652
vn 0.9355 -0.3433 -0.0830
vn 0.9424 -0.3331 0.0295
vn 0.8476 -0.4666 -0.2528
vn 0.1905 -0.4903 0.8504
vn 0.0800 -0.4961 0.8646
vn 0.6702 -0.7177 0.1887
vn 0.8606 -0.1354 -0.4909
vn 0.9412 -0.3345 -0.0476
vn 0.8547 -0.3271 -0.4030
vn 0.4417 -0.4525 0.7747
vn 0.3213 -0.9134 0.2497
vn 0.9022 -0.1833 -0.3905
vn 0.9391 -0.3006 -0.1664
vn 0.9911 -0.0917 -0.0956
vn 0.9377 -0.0821 -0.3377
vn 0.7280 -0.3342 0.5985
vn 0.6493 -0.7576 0.0667
vn 0.9391 -0.2141 -0.2688
vn 0.9348 0.0098 -0.3551
vn 0.9969 -0.0326 0.0721
vn -0.0801 0.9968 -0.0027
vn -0.0786 0.9831 -0.1654
vn -0.1905 0.9817 -0.0006
vn 0.1595 0.9753 0.1526
vn -0.0994 0.8507 -0.5162
vn 0.5939 0.6876 -0.4177
vn -0.1015 0.5795 -0.8086
vn -0.4417 0.8972 0.0046
vn 0.5914 0.4697 -0.6554
vn -0.1015 0.2260 -0.9688
vn -0.3726 0.7880 0.4902
vn -0.3212 0.6729 0.6663
vn -0.7280 0.6854 -0.0099
vn 0.5914 0.1831 -0.7853
vn -0.0336 -0.1808 -0.9829
vn 0.4371 0.7694 -0.4659
vn -0.4253 0.7778 -0.4627
vn -0.6702 0.5222 0.5274
vn -0.6493 0.4364 0.6229
vn -0.9969 0.0788 -0.0079
vn 0.3624 0.8512 0.3796
vn 0.5844 -0.0986 -0.8054
vn 0.4403 0.5230 -0.7298
vn -0.9022 -0.2464 0.3539
vn -0.7104 0.5915 -0.3813
vn -0.9356 0.0998 0.3387
vn 0.0000 -0.3941 -0.9190
vn 0.4403 0.2039 -0.8744
vn -0.9348 -0.3124 0.1690
vn -0.4249 0.5275 -0.7356
vn -0.9975 0.0431 -0.0558
vn -0.8606 -0.3574 0.3627
vn -0.5844 -0.0986 -0.8054
vn 0.1449 -0.6464 -0.7491
vn 0.4469 -0.1069 -0.8881
vn -0.4249 0.2058 -0.8815
vn -0.8547 -0.1855 0.4848
vn -0.9377 -0.2514 0.2400
vn -0.7127 0.3871 -0.5849
vn -0.1449 -0.6464 -0.7491
vn -0.4469 -0.1069 -0.8881
vn 0.0000 -0.5011 -0.8654
vn 0.3696 -0.7768 -0.5098
vn -0.9911 -0.0369 0.1273
vn -0.9984 0.0227 -0.0514
vn -0.8476 0.0143 0.5305
vn -0.4304 -0.1209 -0.8945
vn -0.7122 0.1337 -0.6891
vn -0.3696 -0.7768 -0.5098
vn -0.4403 0.2039 -0.8744
vn -0.1898 -0.4905 -0.8505
vn -0.9391 -0.1257 0.3198
vn -0.9990 0.0013 -0.0448
vn -0.3290 -0.8827 -0.3356
vn 0.4304 -0.1209 -0.8945
vn 0.1898 -0.4905 -0.8505
vn -0.5914 0.1831 -0.7853
vn -0.4434 -0.4451 -0.7779
vn -0.2656 -0.9522 -0.1506
vn -0.9391 0.0062 0.3436
vn -0.7157 -0.1278 -0.6866
vn 0.3290 -0.8827 -0.3356
vn 0.4249 0.2058 -0.8815
vn 0.2656 -0.9522 -0.1506
vn 0.0996 0.0326 -0.9945
vn -0.3947 -0.9011 -0.1796
vn -0.7526 -0.3453 -0.5606
vn -0.9412 0.1260 0.3135
vn -0.9424 0.1921 0.2738
vn -0.8413 0.1811 0.5093
vn -0.5257 -0.7773 -0.3454
vn -0.4403 0.5230 -0.7298
vn 0.7122 0.1337 -0.6891
vn 0.4434 -0.4451 -0.7779
vn 0.7157 -0.1278 -0.6866
vn 0.1015 0.2260 -0.9688
vn -0.9622 -0.1143 0.2469
vn -0.9998 -0.0088 -0.0132
vn 0.4249 0.5275 -0.7356
vn 0.5257 -0.7773 -0.3454
vn 0.3947 -0.9011 -0.1796
vn 0.9990 0.0013 -0.0448
vn -0.5914 0.4697 -0.6554
vn 0.1015 0.5795 -0.8086
vn -0.9945 0.0704 0.0774
vn -0.7579 -0.6082 0.2358
vn 0.4253 0.7778 -0.4627
vn 0.7127 0.3871 -0.5849
vn 0.7579 -0.6082 0.2358
vn 0.9622 -0.1143 0.2469
vn 0.7526 -0.3453 -0.5606
vn 0.9998 -0.0088 -0.0132
vn -0.5939 0.6876 -0.4177
vn 0.0994 0.8507 -0.5162
vn -0.4371 0.7694 -0.4659
vn 0.7104 0.5915 -0.3813
vn 0.9984 0.0227 -0.0514
vn 0.9945 0.0704 0.0774
vn 0.8413 0.1811 0.5093
vn -0.1595 0.9753 0.1526
vn 0.0786 0.9831 -0.1654
vn -0.3624 0.8512 0.3796
vn 0.3726 0.7880 0.4902
vn 0.9356 0.0998 0.3387
vn 0.9975 0.0431 -0.0558
vn 0.9424 0.1921 0.2738
vn 0.8476 0.0143 0.5305
vn 0.0801 0.9968 -0.0027
vn 0.1905 0.9817 -0.0006
vn 0.6702 0.5222 0.5274
vn 0.8606 -0.3574 0.3627
vn 0.9412 0.1260 0.3135
vn 0.8547 -0.1855 0.4848
vn 0.4417 0.8972 0.0046
vn 0.3212 0.6729 0.6663
vn 0.9022 -0.2464 0.3539
vn 0.9391 0.0062 0.3436
vn 0.9911 -0.0369 0.1273
vn 0.9377 -0.2514 0.2400
vn 0.7280 0.6854 -0.0099
vn 0.6493 0.4364 0.6229
vn 0.9391 -0.1257 0.3198
vn 0.9348 -0.3124 0.1690
vn 0.9969 0.0788 -0.0079
usemtl mesh_0_material
s 1
f 1/1/1 2/2/2 3/3/3
f 2/2/2 4/4/4 3/3/3
f 2/2/2 5/5/5 4/4/4
f 5/5/5 6/6/6 4/4/4
f 5/5/5 7/7/7 6/6/6
f 3/3/3 4/4/4 8/8/8
f 7/7/7 9/9/9 6/6/6
f 7/7/7 10/10/10 9/9/9
f 8/8/8 4/4/4 11/11/11
f 4/4/4 12/12/12 11/11/11
f 8/8/8 11/11/11 13/13/13
f 10/10/10 14/14/14 9/9/9
f 10/10/10 15/15/15 14/14/14
f 6/6/6 9/9/9 16/16/16
f 12/12/12 16/16/16 17/17/17
f 11/11/11 12/12/12 18/18/18
f 12/12/12 17/17/17 18/18/18
f 11/11/11 18/18/18 19/19/19
f 11/11/11 19/19/19 13/13/13
f 13/13/13 19/19/19 20/20/20
f 21/21/21 16/16/16 12/12/12
f 21/21/21 4/4/4 6/6/6
f 4/4/4 21/21/21 12/12/12
f 21/21/21 6/6/6 16/16/16
f 15/15/15 22/22/22 14/14/14
f 16/16/16 23/23/23 17/17/17
f 9/9/9 14/14/14 23/23/23
f 9/9/9 23/23/23 16/16/16
f 20/20/20 19/19/19 24/24/24
f 18/18/18 17/17/17 25/25/25
f 19/19/19 26/26/26 24/24/24
f 19/19/19 18/18/18 26/26/26
f 18/18/18 25/25/25 26/26/26
f 15/15/15 27/27/27 22/22/22
f 14/14/14 22/22/22 28/28/28
f 14/14/14 28/28/28 23/23/23
f 20/20/20 24/24/24 29/29/29
f 17/17/17 23/23/23 30/30/30
f 23/23/23 28/28/28 30/30/30
f 17/17/17 30/30/30 25/25/25
f 26/26/26 25/25/25 31/31/31
f 24/24/24 32/32/32 29/29/29
f 26/26/26 32/32/32 24/24/24
f 26/26/26 31/31/31 32/32/32
f 15/15/15 33/33/33 27/27/27
f 22/22/22 27/27/27 34/34/34
f 22/22/22 35/35/35 28/28/28
f 22/22/22 34/34/34 35/35/35
f 30/30/30 28/28/28 36/36/36
f 28/28/28 35/35/35 36/36/36
f 32/32/32 31/31/31 37/37/37
f 32/32/32 37/37/37 38/38/38
f 29/29/29 32/32/32 38/38/38
f 25/25/25 39/39/39 31/31/31
f 30/30/30 36/36/36 39/39/39
f 30/30/30 39/39/39 25/25/25
f 27/27/27 33/33/33 40/40/40
f 33/33/33 41/41/41 40/40/40
f 27/27/27 42/42/42 34/34/34
f 27/27/27 40/40/40 42/42/42
f 35/35/35 34/34/34 43/43/43
f 29/29/29 38/38/38 44/44/44
f 31/31/31 39/39/39 45/45/45
f 31/31/31 45/45/45 37/37/37
f 37/37/37 45/45/45 46/46/46
f 35/35/35 43/43/43 47/47/47
f 36/36/36 35/35/35 47/47/47
f 39/39/39 36/36/36 48/48/48
f 36/36/36 47/47/47 48/48/48
f 39/39/39 48/48/48 45/45/45
f 41/41/41 49/49/49 40/40/40
f 33/33/33 50/50/50 41/41/41
f 42/42/42 51/51/51 34/34/34
f 37/37/37 46/46/46 52/52/52
f 38/38/38 52/52/52 44/44/44
f 38/38/38 37/37/37 52/52/52
f 45/45/45 53/53/53 46/46/46
f 45/45/45 48/48/48 53/53/53
f 43/43/43 54/54/54 47/47/47
f 43/43/43 34/34/34 54/54/54
f 49/49/49 41/41/41 55/55/55
f 40/40/40 56/56/56 42/42/42
f 33/33/33 57/57/57 50/50/50
f 34/34/34 58/58/58 54/54/54
f 34/34/34 51/51/51 58/58/58
f 51/51/51 59/59/59 58/58/58
f 52/52/52 46/46/46 60/60/60
f 52/52/52 60/60/60 44/44/44
f 48/48/48 61/61/61 53/53/53
f 47/47/47 61/61/61 48/48/48
f 47/47/47 54/54/54 61/61/61
f 49/49/49 62/62/62 40/40/40
f 49/49/49 55/55/55 62/62/62
f 41/41/41 63/63/63 55/55/55
f 41/41/41 50/50/50 63/63/63
f 40/40/40 62/62/62 64/64/64
f 56/56/56 40/40/40 64/64/64
f 33/33/33 65/65/65 57/57/57
f 59/59/59 66/66/66 67/67/67
f 59/59/59 67/67/67 58/58/58
f 44/44/44 60/60/60 68/68/68
f 44/44/44 68/68/68 69/69/69
f 60/60/60 70/70/70 68/68/68
f 46/46/46 53/53/53 70/70/70
f 46/46/46 70/70/70 60/60/60
f 58/58/58 67/67/67 71/71/71
f 58/58/58 71/71/71 54/54/54
f 54/54/54 71/71/71 61/61/61
f 50/50/50 57/57/57 72/72/72
f 63/63/63 73/73/73 55/55/55
f 56/56/56 64/64/64 74/74/74
f 55/55/55 73/73/73 75/75/75
f 62/62/62 55/55/55 75/75/75
f 65/65/65 76/76/76 57/57/57
f 68/68/68 77/77/77 69/69/69
f 68/68/68 70/70/70 77/77/77
f 66/66/66 77/77/77 67/67/67
f 53/53/53 61/61/61 78/78/78
f 70/70/70 78/78/78 77/77/77
f 70/70/70 53/53/53 78/78/78
f 61/61/61 71/71/71 78/78/78
f 50/50/50 79/79/79 63/63/63
f 50/50/50 72/72/72 79/79/79
f 62/62/62 75/75/75 80/80/80
f 62/62/62 80/80/80 64/64/64
f 64/64/64 81/81/81 74/74/74
f 64/64/64 80/80/80 81/81/81
f 73/73/73 82/82/82 75/75/75
f 76/76/76 83/83/83 84/84/84
f 57/57/57 84/84/84 72/72/72
f 57/57/57 76/76/76 84/84/84
f 85/85/85 69/69/69 77/77/77
f 66/66/66 85/85/85 77/77/77
f 86/86/86 78/78/78 71/71/71
f 86/86/86 77/77/77 78/78/78
f 77/77/77 86/86/86 67/67/67
f 67/67/67 86/86/86 71/71/71
f 79/79/79 72/72/72 87/87/87
f 63/63/63 79/79/79 88/88/88
f 63/63/63 88/88/88 73/73/73
f 81/81/81 80/80/80 89/89/89
f 81/81/81 89/89/89 90/90/90
f 81/81/81 90/90/90 91/91/91
f 74/74/74 81/81/81 91/91/91
f 89/89/89 80/80/80 92/92/92
f 80/80/80 75/75/75 92/92/92
f 89/89/89 92/92/92 90/90/90
f 82/82/82 92/92/92 75/75/75
f 83/83/83 93/93/93 94/94/94
f 83/83/83 94/94/94 84/84/84
f 84/84/84 94/94/94 95/95/95
f 72/72/72 95/95/95 87/87/87
f 72/72/72 84/84/84 95/95/95
f 79/79/79 96/96/96 88/88/88
f 79/79/79 87/87/87 96/96/96
f 73/73/73 88/88/88 97/97/97
f 73/73/73 97/97/97 82/82/82
f 91/91/91 90/90/90 98/98/98
f 92/92/92 82/82/82 99/99/99
f 92/92/92 99/99/99 90/90/90
f 93/93/93 100/100/100 94/94/94
f 93/93/93 101/101/101 100/100/100
f 102/102/102 95/95/95 94/94/94
f 94/94/94 100/100/100 102/102/102
f 102/102/102 100/100/100 103/103/103
f 95/95/95 102/102/102 103/103/103
f 95/95/95 103/103/103 87/87/87
f 88/88/88 104/104/104 97/97/97
f 88/88/88 96/96/96 104/104/104
f 96/96/96 105/105/105 104/104/104
f 98/98/98 90/90/90 106/106/106
f 82/82/82 107/107/107 99/99/99
f 82/82/82 97/97/97 107/107/107
f 101/101/101 108/108/108 100/100/100
f 101/101/101 109/109/109 108/108/108
f 103/103/103 110/110/110 87/87/87
f 96/96/96 110/110/110 105/105/105
f 96/96/96 87/87/87 110/110/110
f 104/104/104 105/105/105 111/111/111
f 90/90/90 112/112/112 106/106/106
f 90/90/90 99/99/99 112/112/112
f 104/104/104 111/111/111 113/113/113
f 104/104/104 113/113/113 97/97/97
f 97/97/97 113/113/113 107/107/107
f 108/108/108 114/114/114 100/100/100
f 103/103/103 100/100/100 115/115/115
f 100/100/100 114/114/114 115/115/115
f 103/103/103 115/115/115 110/110/110
f 105/105/105 116/116/116 111/111/111
f 99/99/99 117/117/117 112/112/112
f 99/99/99 107/107/107 117/117/117
f 112/112/112 117/117/117 118/118/118
f 106/106/106 112/112/112 118/118/118
f 113/113/113 111/111/111 119/119/119
f 114/114/114 120/120/120 115/115/115
f 110/110/110 121/121/121 105/105/105
f 115/115/115 120/120/120 121/121/121
f 115/115/115 121/121/121 110/110/110
f 105/105/105 121/121/121 116/116/116
f 122/122/122 118/118/118 117/117/117
f 122/122/122 113/113/113 119/119/119
f 122/122/122 117/117/117 107/107/107
f 122/122/122 119/119/119 118/118/118
f 107/107/107 113/113/113 122/122/122
f 119/119/119 111/111/111 123/123/123
f 119/119/119 123/123/123 118/118/118
f 111/111/111 116/116/116 123/123/123
f 120/120/120 124/124/124 121/121/121
f 124/124/124 116/116/116 121/121/121
f 116/116/116 124/124/124 123/123/123
f 125/125/125 126/126/126 127/127/127
f 126/126/126 128/128/128 127/127/127
f 126/126/126 129/129/129 128/128/128
f 129/129/129 130/130/130 128/128/128
f 129/129/129 131/131/131 130/130/130
f 127/127/127 128/128/128 132/132/132
f 131/131/131 133/133/133 134/134/134
f 131/131/131 134/134/134 130/130/130
f 132/132/132 128/128/128 135/135/135
f 128/128/128 136/136/136 135/135/135
f 132/132/132 135/135/135 137/137/137
f 133/133/133 138/138/138 134/134/134
f 133/133/133 139/139/139 138/138/138
f 130/130/130 134/134/134 140/140/140
f 136/136/136 140/140/140 141/141/141
f 135/135/135 136/136/136 142/142/142
f 136/136/136 141/141/141 142/142/142
f 135/135/135 142/142/142 143/143/143
f 135/135/135 143/143/143 137/137/137
f 137/137/137 143/143/143 144/144/144
f 145/145/145 140/140/140 136/136/136
f 145/145/145 128/128/128 130/130/130
f 145/145/145 130/130/130 140/140/140
f 128/128/128 145/145/145 136/136/136
f 139/139/139 146/146/146 138/138/138
f 134/134/134 147/147/147 140/140/140
f 140/140/140 147/147/147 141/141/141
f 134/134/134 138/138/138 147/147/147
f 144/144/144 143/143/143 148/148/148
f 142/142/142 141/141/141 149/149/149
f 142/142/142 149/149/149 150/150/150
f 143/143/143 150/150/150 148/148/148
f 143/143/143 142/142/142 150/150/150
f 139/139/139 151/151/151 146/146/146
f 138/138/138 146/146/146 152/152/152
f 138/138/138 152/152/152 147/147/147
f 144/144/144 148/148/148 153/153/153
f 141/141/141 147/147/147 154/154/154
f 147/147/147 152/152/152 154/154/154
f 141/141/141 154/154/154 149/149/149
f 150/150/150 149/149/149 155/155/155
f 148/148/148 156/156/156 153/153/153
f 150/150/150 156/156/156 148/148/148
f 150/150/150 155/155/155 156/156/156
f 139/139/139 157/157/157 151/151/151
f 146/146/146 151/151/151 158/158/158
f 146/146/146 159/159/159 152/152/152
f 146/146/146 158/158/158 159/159/159
f 152/152/152 159/159/159 160/160/160
f 154/154/154 152/152/152 160/160/160
f 156/156/156 155/155/155 161/161/161
f 156/156/156 161/161/161 162/162/162
f 153/153/153 156/156/156 162/162/162
f 154/154/154 160/160/160 163/163/163
f 154/154/154 163/163/163 149/149/149
f 149/149/149 163/163/163 155/155/155
f 157/157/157 164/164/164 165/165/165
f 151/151/151 157/157/157 165/165/165
f 151/151/151 165/165/165 166/166/166
f 151/151/151 166/166/166 158/158/158
f 159/159/159 158/158/158 167/167/167
f 153/153/153 162/162/162 168/168/168
f 155/155/155 163/163/163 169/169/169
f 155/155/155 169/169/169 161/161/161
f 161/161/161 169/169/169 170/170/170
f 159/159/159 167/167/167 171/171/171
f 160/160/160 159/159/159 171/171/171
f 163/163/163 160/160/160 172/172/172
f 160/160/160 171/171/171 172/172/172
f 163/163/163 172/172/172 169/169/169
f 164/164/164 173/173/173 165/165/165
f 157/157/157 174/174/174 164/164/164
f 166/166/166 175/175/175 158/158/158
f 161/161/161 170/170/170 176/176/176
f 162/162/162 176/176/176 168/168/168
f 162/162/162 161/161/161 176/176/176
f 169/169/169 172/172/172 177/177/177
f 169/169/169 177/177/177 170/170/170
f 167/167/167 158/158/158 178/178/178
f 167/167/167 178/178/178 171/171/171
f 173/173/173 164/164/164 179/179/179
f 165/165/165 180/180/180 166/166/166
f 157/157/157 181/181/181 174/174/174
f 158/158/158 182/182/182 178/178/178
f 158/158/158 175/175/175 182/182/182
f 175/175/175 183/183/183 182/182/182
f 176/176/176 184/184/184 168/168/168
f 176/176/176 170/170/170 184/184/184
f 171/171/171 185/185/185 172/172/172
f 171/171/171 178/178/178 185/185/185
f 172/172/172 185/185/185 177/177/177
f 173/173/173 186/186/186 165/165/165
f 173/173/173 179/179/179 186/186/186
f 164/164/164 187/187/187 179/179/179
f 164/164/164 174/174/174 187/187/187
f 180/180/180 165/165/165 188/188/188
f 165/165/165 186/186/186 188/188/188
f 157/157/157 189/189/189 181/181/181
f 183/183/183 190/190/190 182/182/182
f 183/183/183 191/191/191 190/190/190
f 168/168/168 184/184/184 192/192/192
f 168/168/168 192/192/192 193/193/193
f 184/184/184 194/194/194 192/192/192
f 170/170/170 177/177/177 194/194/194
f 170/170/170 194/194/194 184/184/184
f 178/178/178 195/195/195 185/185/185
f 182/182/182 190/190/190 195/195/195
f 182/182/182 195/195/195 178/178/178
f 174/174/174 181/181/181 196/196/196
f 187/187/187 197/197/197 179/179/179
f 180/180/180 188/188/188 198/198/198
f 179/179/179 197/197/197 199/199/199
f 186/186/186 179/179/179 199/199/199
f 189/189/189 200/200/200 181/181/181
f 191/191/191 201/201/201 190/190/190
f 192/192/192 201/201/201 193/193/193
f 192/192/192 194/194/194 201/201/201
f 194/194/194 202/202/202 201/201/201
f 194/194/194 177/177/177 202/202/202
f 185/185/185 195/195/195 202/202/202
f 177/177/177 185/185/185 202/202/202
f 174/174/174 203/203/203 187/187/187
f 174/174/174 196/196/196 203/203/203
f 186/186/186 204/204/204 188/188/188
f 186/186/186 199/199/199 204/204/204
f 188/188/188 204/204/204 205/205/205
f 188/188/188 205/205/205 198/198/198
f 197/197/197 206/206/206 199/199/199
f 181/181/181 207/207/207 196/196/196
f 181/181/181 200/200/200 207/207/207
f 200/200/200 208/208/208 207/207/207
f 209/209/209 193/193/193 201/201/201
f 191/191/191 209/209/209 201/201/201
f 190/190/190 210/210/210 195/195/195
f 210/210/210 202/202/202 195/195/195
f 210/210/210 201/201/201 202/202/202
f 201/201/201 210/210/210 190/190/190
f 203/203/203 196/196/196 211/211/211
f 187/187/187 212/212/212 197/197/197
f 187/187/187 203/203/203 212/212/212
f 205/205/205 204/204/204 213/213/213
f 205/205/205 213/213/213 214/214/214
f 205/205/205 214/214/214 215/215/215
f 198/198/198 205/205/205 215/215/215
f 206/206/206 216/216/216 199/199/199
f 213/213/213 204/204/204 216/216/216
f 204/204/204 199/199/199 216/216/216
f 213/213/213 216/216/216 214/214/214
f 208/208/208 217/217/217 207/207/207
f 208/208/208 218/218/218 217/217/217
f 196/196/196 207/207/207 219/219/219
f 207/207/207 217/217/217 219/219/219
f 196/196/196 219/219/219 211/211/211
f 203/203/203 220/220/220 212/212/212
f 203/203/203 211/211/211 220/220/220
f 197/197/197 212/212/212 221/221/221
f 197/197/197 221/221/221 206/206/206
f 215/215/215 214/214/214 222/222/222
f 216/216/216 206/206/206 223/223/223
f 216/216/216 223/223/223 214/214/214
f 218/218/218 224/224/224 217/217/217
f 218/218/218 225/225/225 224/224/224
f 226/226/226 219/219/219 217/217/217
f 217/217/217 224/224/224 226/226/226
f 226/226/226 224/224/224 227/227/227
f 219/219/219 226/226/226 227/227/227
f 219/219/219 227/227/227 211/211/211
f 212/212/212 228/228/228 221/221/221
f 212/212/212 220/220/220 228/228/228
f 220/220/220 229/229/229 228/228/228
f 222/222/222 214/214/214 230/230/230
f 206/206/206 231/231/231 223/223/223
f 206/206/206 221/221/221 231/231/231
f 225/225/225 232/232/232 224/224/224
f 225/225/225 233/233/233 232/232/232
f 227/227/227 234/234/234 211/211/211
f 220/220/220 234/234/234 229/229/229
f 220/220/220 211/211/211 234/234/234
f 228/228/228 229/229/229 235/235/235
f 214/214/214 236/236/236 230/230/230
f 214/214/214 223/223/223 236/236/236
f 228/228/228 235/235/235 237/237/237
f 228/228/228 237/237/237 221/221/221
f 221/221/221 237/237/237 231/231/231
f 232/232/232 238/238/238 224/224/224
f 227/227/227 224/224/224 239/239/239
f 224/224/224 238/238/238 239/239/239
f 227/227/227 239/239/239 234/234/234
f 229/229/229 240/240/240 235/235/235
f 223/223/223 241/241/241 236/236/236
f 223/223/223 231/231/231 241/241/241
f 236/236/236 241/241/241 242/242/242
f 230/230/230 236/236/236 242/242/242
f 237/237/237 235/235/235 243/243/243
f 238/238/238 244/244/244 239/239/239
f 234/234/234 245/245/245 229/229/229
f 239/239/239 244/244/244 245/245/245
f 239/239/239 245/245/245 234/234/234
f 229/229/229 245/245/245 240/240/240
f 246/246/246 242/242/242 241/241/241
f 246/246/246 237/237/237 243/243/243
f 246/246/246 241/241/241 231/231/231
f 246/246/246 243/243/243 242/242/242
f 231/231/231 237/237/237 246/246/246
f 243/243/243 235/235/235 247/247/247
f 243/243/243 247/247/247 242/242/242
f 235/235/235 240/240/240 247/247/247
f 244/244/244 248/248/248 245/245/245
f 248/248/248 240/240/240 245/245/245
f 240/240/240 248/248/248 247/247/247
f 249/249/249 250/250/250 251/251/251
f 250/250/250 252/252/252 251/251/251
f 250/250/250 253/253/253 252/252/252
f 253/253/253 254/254/254 252/252/252
f 253/253/253 255/255/255 254/254/254
f 251/251/251 252/252/252 256/256/256
f 255/255/255 257/257/257 254/254/254
f 255/255/255 258/258/258 257/257/257
f 252/252/252 259/259/259 260/260/260
f 256/256/256 252/252/252 260/260/260
f 256/256/256 260/260/260 261/261/261
f 258/258/258 262/262/262 257/257/257
f 258/258/258 263/263/263 262/262/262
f 254/254/254 257/257/257 264/264/264
f 259/259/259 264/264/264 265/265/265
f 260/260/260 259/259/259 266/266/266
f 259/259/259 265/265/265 266/266/266
f 260/260/260 267/267/267 261/261/261
f 260/260/260 266/266/266 267/267/267
f 261/261/261 267/267/267 268/268/268
f 269/269/269 264/264/264 259/259/259
f 252/252/252 269/269/269 259/259/259
f 269/269/269 254/254/254 264/264/264
f 269/269/269 252/252/252 254/254/254
f 263/263/263 270/270/270 262/262/262
f 264/264/264 271/271/271 265/265/265
f 257/257/257 262/262/262 271/271/271
f 257/257/257 271/271/271 264/264/264
f 268/268/268 267/267/267 272/272/272
f 266/266/266 265/265/265 273/273/273
f 267/267/267 274/274/274 272/272/272
f 267/267/267 266/266/266 274/274/274
f 266/266/266 273/273/273 274/274/274
f 263/263/263 275/275/275 270/270/270
f 262/262/262 270/270/270 276/276/276
f 262/262/262 276/276/276 271/271/271
f 268/268/268 272/272/272 277/277/277
f 271/271/271 276/276/276 278/278/278
f 265/265/265 278/278/278 273/273/273
f 265/265/265 271/271/271 278/278/278
f 274/274/274 273/273/273 279/279/279
f 272/272/272 280/280/280 277/277/277
f 274/274/274 280/280/280 272/272/272
f 274/274/274 279/279/279 280/280/280
f 263/263/263 281/281/281 275/275/275
f 270/270/270 275/275/275 282/282/282
f 270/270/270 283/283/283 276/276/276
f 270/270/270 282/282/282 283/283/283
f 276/276/276 283/283/283 284/284/284
f 278/278/278 276/276/276 284/284/284
f 280/280/280 279/279/279 285/285/285
f 280/280/280 285/285/285 286/286/286
f 277/277/277 280/280/280 286/286/286
f 273/273/273 287/287/287 279/279/279
f 278/278/278 284/284/284 287/287/287
f 278/278/278 287/287/287 273/273/273
f 275/275/275 281/281/281 288/288/288
f 281/281/281 289/289/289 288/288/288
f 275/275/275 288/288/288 290/290/290
f 275/275/275 290/290/290 282/282/282
f 283/283/283 282/282/282 291/291/291
f 277/277/277 286/286/286 292/292/292
f 279/279/279 293/293/293 285/285/285
f 279/279/279 287/287/287 293/293/293
f 285/285/285 293/293/293 294/294/294
f 284/284/284 283/283/283 295/295/295
f 283/283/283 291/291/291 295/295/295
f 287/287/287 284/284/284 296/296/296
f 287/287/287 296/296/296 293/293/293
f 284/284/284 295/295/295 296/296/296
f 289/289/289 297/297/297 288/288/288
f 281/281/281 298/298/298 289/289/289
f 290/290/290 299/299/299 282/282/282
f 286/286/286 285/285/285 300/300/300
f 285/285/285 294/294/294 300/300/300
f 286/286/286 300/300/300 292/292/292
f 293/293/293 301/301/301 294/294/294
f 293/293/293 296/296/296 301/301/301
f 291/291/291 282/282/282 302/302/302
f 291/291/291 302/302/302 295/295/295
f 297/297/297 289/289/289 303/303/303
f 288/288/288 304/304/304 290/290/290
f 281/281/281 305/305/305 298/298/298
f 299/299/299 306/306/306 307/307/307
f 282/282/282 307/307/307 302/302/302
f 282/282/282 299/299/299 307/307/307
f 300/300/300 294/294/294 308/308/308
f 300/300/300 308/308/308 292/292/292
f 295/295/295 309/309/309 296/296/296
f 295/295/295 302/302/302 309/309/309
f 296/296/296 309/309/309 301/301/301
f 297/297/297 310/310/310 288/288/288
f 297/297/297 303/303/303 310/310/310
f 289/289/289 298/298/298 311/311/311
f 289/289/289 311/311/311 303/303/303
f 288/288/288 310/310/310 312/312/312
f 304/304/304 288/288/288 312/312/312
f 281/281/281 313/313/313 305/305/305
f 306/306/306 314/314/314 307/307/307
f 306/306/306 315/315/315 314/314/314
f 292/292/292 308/308/308 316/316/316
f 292/292/292 316/316/316 317/317/317
f 294/294/294 318/318/318 308/308/308
f 308/308/308 318/318/318 316/316/316
f 294/294/294 301/301/301 318/318/318
f 307/307/307 314/314/314 319/319/319
f 307/307/307 319/319/319 302/302/302
f 302/302/302 319/319/319 309/309/309
f 298/298/298 305/305/305 320/320/320
f 311/311/311 321/321/321 303/303/303
f 304/304/304 312/312/312 322/322/322
f 303/303/303 321/321/321 323/323/323
f 310/310/310 303/303/303 323/323/323
f 313/313/313 324/324/324 305/305/305
f 315/315/315 325/325/325 314/314/314
f 316/316/316 325/325/325 317/317/317
f 316/316/316 318/318/318 325/325/325
f 318/318/318 326/326/326 325/325/325
f 318/318/318 301/301/301 326/326/326
f 309/309/309 319/319/319 326/326/326
f 301/301/301 309/309/309 326/326/326
f 298/298/298 327/327/327 311/311/311
f 298/298/298 320/320/320 327/327/327
f 310/310/310 328/328/328 312/312/312
f 310/310/310 323/323/323 328/328/328
f 312/312/312 328/328/328 329/329/329
f 312/312/312 329/329/329 322/322/322
f 321/321/321 330/330/330 323/323/323
f 305/305/305 331/331/331 320/320/320
f 305/305/305 324/324/324 331/331/331
f 324/324/324 332/332/332 331/331/331
f 333/333/333 317/317/317 325/325/325
f 315/315/315 333/333/333 325/325/325
f 314/314/314 334/334/334 319/319/319
f 334/334/334 326/326/326 319/319/319
f 334/334/334 325/325/325 326/326/326
f 325/325/325 334/334/334 314/314/314
f 327/327/327 320/320/320 335/335/335
f 311/311/311 336/336/336 321/321/321
f 311/311/311 327/327/327 336/336/336
f 329/329/329 328/328/328 337/337/337
f 329/329/329 337/337/337 338/338/338
f 329/329/329 338/338/338 339/339/339
f 322/322/322 329/329/329 339/339/339
f 330/330/330 340/340/340 323/323/323
f 337/337/337 328/328/328 340/340/340
f 328/328/328 323/323/323 340/340/340
f 337/337/337 340/340/340 338/338/338
f 332/332/332 341/341/341 331/331/331
f 332/332/332 342/342/342 341/341/341
f 331/331/331 341/341/341 343/343/343
f 320/320/320 343/343/343 335/335/335
f 320/320/320 331/331/331 343/343/343
f 327/327/327 344/344/344 336/336/336
f 327/327/327 335/335/335 344/344/344
f 321/321/321 345/345/345 330/330/330
f 321/321/321 336/336/336 345/345/345
f 339/339/339 338/338/338 346/346/346
f 340/340/340 330/330/330 347/347/347
f 340/340/340 347/347/347 338/338/338
f 342/342/342 348/348/348 341/341/341
f 342/342/342 349/349/349 348/348/348
f 341/341/341 348/348/348 350/350/350
f 350/350/350 343/343/343 341/341/341
f 343/343/343 350/350/350 351/351/351
f 343/343/343 351/351/351 335/335/335
f 350/350/350 348/348/348 351/351/351
f 344/344/344 352/352/352 353/353/353
f 336/336/336 353/353/353 345/345/345
f 336/336/336 344/344/344 353/353/353
f 346/346/346 338/338/338 354/354/354
f 330/330/330 355/355/355 347/347/347
f 330/330/330 345/345/345 355/355/355
f 349/349/349 356/356/356 357/357/357
f 349/349/349 357/357/357 348/348/348
f 344/344/344 358/358/358 352/352/352
f 344/344/344 335/335/335 358/358/358
f 351/351/351 358/358/358 335/335/335
f 353/353/353 352/352/352 359/359/359
f 338/338/338 360/360/360 354/354/354
f 338/338/338 347/347/347 360/360/360
f 345/345/345 361/361/361 355/355/355
f 353/353/353 359/359/359 361/361/361
f 353/353/353 361/361/361 345/345/345
f 357/357/357 362/362/362 348/348/348
f 348/348/348 362/362/362 363/363/363
f 351/351/351 363/363/363 358/358/358
f 351/351/351 348/348/348 363/363/363
f 352/352/352 364/364/364 359/359/359
f 347/347/347 365/365/365 360/360/360
f 347/347/347 355/355/355 365/365/365
f 354/354/354 360/360/360 366/366/366
f 360/360/360 365/365/365 366/366/366
f 361/361/361 359/359/359 367/367/367
f 362/362/362 368/368/368 363/363/363
f 363/363/363 368/368/368 369/369/369
f 363/363/363 369/369/369 358/358/358
f 352/352/352 369/369/369 364/364/364
f 358/358/358 369/369/369 352/352/352
f 355/355/355 361/361/361 370/370/370
f 370/370/370 366/366/366 365/365/365
f 370/370/370 361/361/361 367/367/367
f 370/370/370 365/365/365 355/355/355
f 370/370/370 367/367/367 366/366/366
f 367/367/367 359/359/359 371/371/371
f 367/367/367 371/371/371 366/366/366
f 359/359/359 364/364/364 371/371/371
f 372/372/372 364/364/364 369/369/369
f 364/364/364 372/372/372 371/371/371
f 368/368/368 372/372/372 369/369/369
